<svg xmlns="http://www.w3.org/2000/svg" xmlns:xlink="http://www.w3.org/1999/xlink" zoomAndPan="magnify" preserveAspectRatio="xMidYMid meet" version="1.0" viewBox="432.52 149.61 174.6 320.56"><defs><g/><clipPath id="bb15aef6d1"><path d="M 445.195312 149.609375 L 568 149.609375 L 568 230 L 445.195312 230 Z M 445.195312 149.609375 " clip-rule="nonzero"/></clipPath><clipPath id="5ac3f151e5"><path d="M 508.070312 149.609375 C 473.351562 149.609375 445.207031 177.792969 445.207031 212.5625 C 445.207031 217.605469 446.023438 222.988281 447.457031 228.566406 C 464.230469 230.808594 481.382812 230.144531 497.914062 226.480469 C 522.710938 220.988281 551.097656 208.082031 567.230469 191.25 C 558.5 166.964844 535.316406 149.609375 508.070312 149.609375 Z M 464.839844 190.207031 L 464.828125 189.941406 C 464.828125 184.195312 469.480469 179.535156 475.222656 179.535156 C 476.429688 179.535156 477.582031 179.75 478.65625 180.128906 C 479.769531 177.132812 482.644531 174.996094 486.015625 174.996094 C 489.816406 174.996094 492.988281 177.699219 493.71875 181.296875 C 493.902344 181.289062 494.085938 181.273438 494.277344 181.273438 C 499.460938 181.273438 503.730469 185.175781 504.328125 190.214844 L 464.839844 190.214844 Z M 507.113281 204.996094 L 507.105469 204.863281 C 507.105469 201.988281 509.433594 199.65625 512.304688 199.65625 C 512.910156 199.65625 513.484375 199.765625 514.019531 199.953125 C 514.578125 198.457031 516.011719 197.386719 517.699219 197.386719 C 519.601562 197.386719 521.1875 198.742188 521.550781 200.535156 C 521.644531 200.53125 521.734375 200.519531 521.832031 200.519531 C 524.421875 200.519531 526.5625 202.472656 526.855469 204.992188 L 507.113281 204.992188 Z M 507.113281 204.996094 " clip-rule="nonzero"/></clipPath><linearGradient x1="166.613489" gradientTransform="matrix(0.510208, 0, 0, 0.510952, 445.208749, 149.608631)" y1="198.552054" x2="44.780454" gradientUnits="userSpaceOnUse" y2="-24.463476" id="41357e2573"><stop stop-opacity="1" stop-color="rgb(5.099487%, 43.499756%, 89.7995%)" offset="0"/><stop stop-opacity="1" stop-color="rgb(5.099487%, 43.499756%, 89.7995%)" offset="0.25"/><stop stop-opacity="1" stop-color="rgb(5.099487%, 43.499756%, 89.7995%)" offset="0.28125"/><stop stop-opacity="1" stop-color="rgb(5.099487%, 43.534851%, 89.807129%)" offset="0.289062"/><stop stop-opacity="1" stop-color="rgb(5.099487%, 43.746948%, 89.849854%)" offset="0.296875"/><stop stop-opacity="1" stop-color="rgb(5.099487%, 44.099426%, 89.920044%)" offset="0.304688"/><stop stop-opacity="1" stop-color="rgb(5.099487%, 44.451904%, 89.99176%)" offset="0.3125"/><stop stop-opacity="1" stop-color="rgb(5.099487%, 44.804382%, 90.063477%)" offset="0.320312"/><stop stop-opacity="1" stop-color="rgb(5.099487%, 45.15686%, 90.135193%)" offset="0.328125"/><stop stop-opacity="1" stop-color="rgb(5.099487%, 45.509338%, 90.206909%)" offset="0.335938"/><stop stop-opacity="1" stop-color="rgb(5.099487%, 45.861816%, 90.278625%)" offset="0.34375"/><stop stop-opacity="1" stop-color="rgb(5.099487%, 46.214294%, 90.350342%)" offset="0.351562"/><stop stop-opacity="1" stop-color="rgb(5.099487%, 46.566772%, 90.420532%)" offset="0.359375"/><stop stop-opacity="1" stop-color="rgb(5.099487%, 46.91925%, 90.492249%)" offset="0.367188"/><stop stop-opacity="1" stop-color="rgb(5.099487%, 47.270203%, 90.563965%)" offset="0.375"/><stop stop-opacity="1" stop-color="rgb(5.099487%, 47.622681%, 90.635681%)" offset="0.382812"/><stop stop-opacity="1" stop-color="rgb(5.099487%, 47.975159%, 90.707397%)" offset="0.390625"/><stop stop-opacity="1" stop-color="rgb(5.099487%, 48.327637%, 90.779114%)" offset="0.398438"/><stop stop-opacity="1" stop-color="rgb(5.099487%, 48.680115%, 90.85083%)" offset="0.40625"/><stop stop-opacity="1" stop-color="rgb(5.099487%, 49.032593%, 90.921021%)" offset="0.414062"/><stop stop-opacity="1" stop-color="rgb(5.099487%, 49.385071%, 90.992737%)" offset="0.421875"/><stop stop-opacity="1" stop-color="rgb(5.099487%, 49.737549%, 91.064453%)" offset="0.429688"/><stop stop-opacity="1" stop-color="rgb(5.099487%, 50.090027%, 91.136169%)" offset="0.4375"/><stop stop-opacity="1" stop-color="rgb(5.099487%, 50.442505%, 91.207886%)" offset="0.445312"/><stop stop-opacity="1" stop-color="rgb(5.099487%, 50.794983%, 91.279602%)" offset="0.451191"/><stop stop-opacity="1" stop-color="rgb(5.099487%, 50.970459%, 91.316223%)" offset="0.453125"/><stop stop-opacity="1" stop-color="rgb(5.099487%, 51.145935%, 91.351318%)" offset="0.460938"/><stop stop-opacity="1" stop-color="rgb(5.099487%, 51.498413%, 91.423035%)" offset="0.46875"/><stop stop-opacity="1" stop-color="rgb(5.099487%, 51.850891%, 91.493225%)" offset="0.476562"/><stop stop-opacity="1" stop-color="rgb(5.099487%, 52.203369%, 91.564941%)" offset="0.484375"/><stop stop-opacity="1" stop-color="rgb(5.099487%, 52.555847%, 91.636658%)" offset="0.492188"/><stop stop-opacity="1" stop-color="rgb(5.099487%, 52.908325%, 91.708374%)" offset="0.5"/><stop stop-opacity="1" stop-color="rgb(5.099487%, 53.260803%, 91.78009%)" offset="0.507812"/><stop stop-opacity="1" stop-color="rgb(5.099487%, 53.613281%, 91.851807%)" offset="0.515625"/><stop stop-opacity="1" stop-color="rgb(5.099487%, 53.965759%, 91.923523%)" offset="0.523438"/><stop stop-opacity="1" stop-color="rgb(5.099487%, 54.318237%, 91.993713%)" offset="0.53125"/><stop stop-opacity="1" stop-color="rgb(5.099487%, 54.669189%, 92.06543%)" offset="0.539062"/><stop stop-opacity="1" stop-color="rgb(5.099487%, 55.021667%, 92.137146%)" offset="0.546875"/><stop stop-opacity="1" stop-color="rgb(5.099487%, 55.374146%, 92.208862%)" offset="0.548809"/><stop stop-opacity="1" stop-color="rgb(5.099487%, 55.551147%, 92.245483%)" offset="0.554688"/><stop stop-opacity="1" stop-color="rgb(5.099487%, 55.726624%, 92.280579%)" offset="0.5625"/><stop stop-opacity="1" stop-color="rgb(5.099487%, 56.079102%, 92.352295%)" offset="0.570312"/><stop stop-opacity="1" stop-color="rgb(5.099487%, 56.43158%, 92.424011%)" offset="0.578125"/><stop stop-opacity="1" stop-color="rgb(5.099487%, 56.784058%, 92.494202%)" offset="0.585938"/><stop stop-opacity="1" stop-color="rgb(5.099487%, 57.136536%, 92.565918%)" offset="0.59375"/><stop stop-opacity="1" stop-color="rgb(5.099487%, 57.489014%, 92.637634%)" offset="0.601562"/><stop stop-opacity="1" stop-color="rgb(5.099487%, 57.841492%, 92.709351%)" offset="0.609375"/><stop stop-opacity="1" stop-color="rgb(5.099487%, 58.19397%, 92.781067%)" offset="0.617188"/><stop stop-opacity="1" stop-color="rgb(5.099487%, 58.544922%, 92.852783%)" offset="0.625"/><stop stop-opacity="1" stop-color="rgb(5.099487%, 58.8974%, 92.9245%)" offset="0.632812"/><stop stop-opacity="1" stop-color="rgb(5.099487%, 59.249878%, 92.99469%)" offset="0.640625"/><stop stop-opacity="1" stop-color="rgb(5.099487%, 59.602356%, 93.066406%)" offset="0.648438"/><stop stop-opacity="1" stop-color="rgb(5.099487%, 59.954834%, 93.138123%)" offset="0.65625"/><stop stop-opacity="1" stop-color="rgb(5.099487%, 60.307312%, 93.209839%)" offset="0.664062"/><stop stop-opacity="1" stop-color="rgb(5.099487%, 60.65979%, 93.281555%)" offset="0.671875"/><stop stop-opacity="1" stop-color="rgb(5.099487%, 61.012268%, 93.353271%)" offset="0.679688"/><stop stop-opacity="1" stop-color="rgb(5.099487%, 61.364746%, 93.424988%)" offset="0.6875"/><stop stop-opacity="1" stop-color="rgb(5.099487%, 61.717224%, 93.496704%)" offset="0.695312"/><stop stop-opacity="1" stop-color="rgb(5.099487%, 62.068176%, 93.566895%)" offset="0.703125"/><stop stop-opacity="1" stop-color="rgb(5.099487%, 62.420654%, 93.638611%)" offset="0.710938"/><stop stop-opacity="1" stop-color="rgb(5.099487%, 62.773132%, 93.710327%)" offset="0.71875"/><stop stop-opacity="1" stop-color="rgb(5.099487%, 63.12561%, 93.782043%)" offset="0.726562"/><stop stop-opacity="1" stop-color="rgb(5.099487%, 63.478088%, 93.85376%)" offset="0.734375"/><stop stop-opacity="1" stop-color="rgb(5.099487%, 63.830566%, 93.925476%)" offset="0.742188"/><stop stop-opacity="1" stop-color="rgb(5.099487%, 64.183044%, 93.997192%)" offset="0.75"/><stop stop-opacity="1" stop-color="rgb(5.099487%, 64.535522%, 94.067383%)" offset="0.757812"/><stop stop-opacity="1" stop-color="rgb(5.099487%, 64.888%, 94.139099%)" offset="0.765625"/><stop stop-opacity="1" stop-color="rgb(5.099487%, 65.240479%, 94.210815%)" offset="0.773438"/><stop stop-opacity="1" stop-color="rgb(5.099487%, 65.592957%, 94.282532%)" offset="0.78125"/><stop stop-opacity="1" stop-color="rgb(5.099487%, 65.943909%, 94.354248%)" offset="0.789062"/><stop stop-opacity="1" stop-color="rgb(5.099487%, 66.296387%, 94.425964%)" offset="0.796875"/><stop stop-opacity="1" stop-color="rgb(5.099487%, 66.648865%, 94.497681%)" offset="0.804688"/><stop stop-opacity="1" stop-color="rgb(5.099487%, 67.001343%, 94.567871%)" offset="0.8125"/><stop stop-opacity="1" stop-color="rgb(5.099487%, 67.353821%, 94.639587%)" offset="0.820312"/><stop stop-opacity="1" stop-color="rgb(5.099487%, 67.706299%, 94.711304%)" offset="0.828125"/><stop stop-opacity="1" stop-color="rgb(5.099487%, 68.058777%, 94.78302%)" offset="0.835938"/><stop stop-opacity="1" stop-color="rgb(5.099487%, 68.411255%, 94.854736%)" offset="0.84375"/><stop stop-opacity="1" stop-color="rgb(5.099487%, 68.763733%, 94.926453%)" offset="0.851562"/><stop stop-opacity="1" stop-color="rgb(5.099487%, 69.116211%, 94.998169%)" offset="0.859375"/><stop stop-opacity="1" stop-color="rgb(5.099487%, 69.468689%, 95.068359%)" offset="0.867188"/><stop stop-opacity="1" stop-color="rgb(5.099487%, 69.819641%, 95.140076%)" offset="0.875"/><stop stop-opacity="1" stop-color="rgb(5.099487%, 70.172119%, 95.211792%)" offset="0.882812"/><stop stop-opacity="1" stop-color="rgb(5.099487%, 70.474243%, 95.272827%)" offset="0.890625"/><stop stop-opacity="1" stop-color="rgb(5.099487%, 70.599365%, 95.298767%)" offset="0.90625"/><stop stop-opacity="1" stop-color="rgb(5.099487%, 70.599365%, 95.298767%)" offset="0.9375"/><stop stop-opacity="1" stop-color="rgb(5.099487%, 70.599365%, 95.298767%)" offset="1"/></linearGradient><clipPath id="d41ade972c"><path d="M 471 198 L 571 198 L 571 327.273438 L 471 327.273438 Z M 471 198 " clip-rule="nonzero"/></clipPath><clipPath id="9719a5e9dd"><path d="M 570.929688 212.5625 C 570.929688 256.355469 508.066406 327.273438 508.066406 327.273438 C 508.066406 327.273438 488.519531 305.398438 471.21875 278.359375 C 488.046875 271.871094 504.335938 264.203125 519.332031 254.230469 C 540.433594 240.191406 558.929688 220.992188 569.234375 198.066406 C 570.347656 202.730469 570.929688 207.578125 570.929688 212.5625 Z M 570.929688 212.5625 " clip-rule="nonzero"/></clipPath><linearGradient x1="207.256424" gradientTransform="matrix(0.510208, 0, 0, 0.510952, 445.208749, 149.608631)" y1="360.323148" x2="115.080023" gradientUnits="userSpaceOnUse" y2="74.190457" id="ca80c81644"><stop stop-opacity="1" stop-color="rgb(0%, 88.198853%, 57.998657%)" offset="0"/><stop stop-opacity="1" stop-color="rgb(0%, 88.198853%, 57.998657%)" offset="0.0625"/><stop stop-opacity="1" stop-color="rgb(0.012207%, 88.052368%, 58.123779%)" offset="0.078125"/><stop stop-opacity="1" stop-color="rgb(0.0366211%, 87.757874%, 58.375549%)" offset="0.0859375"/><stop stop-opacity="1" stop-color="rgb(0.0610352%, 87.460327%, 58.628845%)" offset="0.09375"/><stop stop-opacity="1" stop-color="rgb(0.0854492%, 87.161255%, 58.883667%)" offset="0.101563"/><stop stop-opacity="1" stop-color="rgb(0.111389%, 86.863708%, 59.138489%)" offset="0.109375"/><stop stop-opacity="1" stop-color="rgb(0.135803%, 86.564636%, 59.393311%)" offset="0.117187"/><stop stop-opacity="1" stop-color="rgb(0.160217%, 86.26709%, 59.648132%)" offset="0.125"/><stop stop-opacity="1" stop-color="rgb(0.186157%, 85.969543%, 59.901428%)" offset="0.132812"/><stop stop-opacity="1" stop-color="rgb(0.210571%, 85.670471%, 60.15625%)" offset="0.140625"/><stop stop-opacity="1" stop-color="rgb(0.234985%, 85.372925%, 60.411072%)" offset="0.148438"/><stop stop-opacity="1" stop-color="rgb(0.260925%, 85.073853%, 60.665894%)" offset="0.15625"/><stop stop-opacity="1" stop-color="rgb(0.285339%, 84.776306%, 60.920715%)" offset="0.164062"/><stop stop-opacity="1" stop-color="rgb(0.309753%, 84.47876%, 61.174011%)" offset="0.171875"/><stop stop-opacity="1" stop-color="rgb(0.335693%, 84.179688%, 61.428833%)" offset="0.179688"/><stop stop-opacity="1" stop-color="rgb(0.360107%, 83.882141%, 61.683655%)" offset="0.1875"/><stop stop-opacity="1" stop-color="rgb(0.384521%, 83.583069%, 61.938477%)" offset="0.195312"/><stop stop-opacity="1" stop-color="rgb(0.410461%, 83.285522%, 62.191772%)" offset="0.19934"/><stop stop-opacity="1" stop-color="rgb(0.422668%, 83.137512%, 62.319946%)" offset="0.203125"/><stop stop-opacity="1" stop-color="rgb(0.434875%, 82.987976%, 62.446594%)" offset="0.210938"/><stop stop-opacity="1" stop-color="rgb(0.45929%, 82.688904%, 62.701416%)" offset="0.21875"/><stop stop-opacity="1" stop-color="rgb(0.485229%, 82.391357%, 62.956238%)" offset="0.226562"/><stop stop-opacity="1" stop-color="rgb(0.509644%, 82.092285%, 63.21106%)" offset="0.234375"/><stop stop-opacity="1" stop-color="rgb(0.535583%, 81.794739%, 63.464355%)" offset="0.242188"/><stop stop-opacity="1" stop-color="rgb(0.559998%, 81.497192%, 63.719177%)" offset="0.25"/><stop stop-opacity="1" stop-color="rgb(0.584412%, 81.19812%, 63.973999%)" offset="0.257812"/><stop stop-opacity="1" stop-color="rgb(0.610352%, 80.900574%, 64.228821%)" offset="0.265625"/><stop stop-opacity="1" stop-color="rgb(0.634766%, 80.601501%, 64.483643%)" offset="0.273437"/><stop stop-opacity="1" stop-color="rgb(0.65918%, 80.303955%, 64.736938%)" offset="0.28125"/><stop stop-opacity="1" stop-color="rgb(0.68512%, 80.006409%, 64.99176%)" offset="0.289062"/><stop stop-opacity="1" stop-color="rgb(0.709534%, 79.707336%, 65.246582%)" offset="0.296875"/><stop stop-opacity="1" stop-color="rgb(0.733948%, 79.40979%, 65.501404%)" offset="0.304688"/><stop stop-opacity="1" stop-color="rgb(0.759888%, 79.110718%, 65.7547%)" offset="0.3125"/><stop stop-opacity="1" stop-color="rgb(0.784302%, 78.813171%, 66.009521%)" offset="0.320312"/><stop stop-opacity="1" stop-color="rgb(0.808716%, 78.515625%, 66.264343%)" offset="0.328125"/><stop stop-opacity="1" stop-color="rgb(0.834656%, 78.216553%, 66.519165%)" offset="0.335937"/><stop stop-opacity="1" stop-color="rgb(0.85907%, 77.919006%, 66.773987%)" offset="0.34375"/><stop stop-opacity="1" stop-color="rgb(0.883484%, 77.619934%, 67.027283%)" offset="0.351563"/><stop stop-opacity="1" stop-color="rgb(0.909424%, 77.322388%, 67.282104%)" offset="0.359375"/><stop stop-opacity="1" stop-color="rgb(0.933838%, 77.023315%, 67.536926%)" offset="0.367188"/><stop stop-opacity="1" stop-color="rgb(0.959778%, 76.725769%, 67.791748%)" offset="0.375"/><stop stop-opacity="1" stop-color="rgb(0.984192%, 76.428223%, 68.04657%)" offset="0.382812"/><stop stop-opacity="1" stop-color="rgb(1.008606%, 76.12915%, 68.299866%)" offset="0.390625"/><stop stop-opacity="1" stop-color="rgb(1.034546%, 75.831604%, 68.554688%)" offset="0.398438"/><stop stop-opacity="1" stop-color="rgb(1.05896%, 75.532532%, 68.809509%)" offset="0.40625"/><stop stop-opacity="1" stop-color="rgb(1.083374%, 75.234985%, 69.064331%)" offset="0.414062"/><stop stop-opacity="1" stop-color="rgb(1.109314%, 74.937439%, 69.317627%)" offset="0.421875"/><stop stop-opacity="1" stop-color="rgb(1.133728%, 74.638367%, 69.572449%)" offset="0.429687"/><stop stop-opacity="1" stop-color="rgb(1.158142%, 74.34082%, 69.827271%)" offset="0.4375"/><stop stop-opacity="1" stop-color="rgb(1.184082%, 74.041748%, 70.082092%)" offset="0.445312"/><stop stop-opacity="1" stop-color="rgb(1.208496%, 73.744202%, 70.336914%)" offset="0.453125"/><stop stop-opacity="1" stop-color="rgb(1.23291%, 73.446655%, 70.59021%)" offset="0.460937"/><stop stop-opacity="1" stop-color="rgb(1.25885%, 73.147583%, 70.845032%)" offset="0.46875"/><stop stop-opacity="1" stop-color="rgb(1.283264%, 72.850037%, 71.099854%)" offset="0.476562"/><stop stop-opacity="1" stop-color="rgb(1.307678%, 72.550964%, 71.354675%)" offset="0.484375"/><stop stop-opacity="1" stop-color="rgb(1.333618%, 72.253418%, 71.609497%)" offset="0.492188"/><stop stop-opacity="1" stop-color="rgb(1.358032%, 71.955872%, 71.862793%)" offset="0.5"/><stop stop-opacity="1" stop-color="rgb(1.382446%, 71.656799%, 72.117615%)" offset="0.507812"/><stop stop-opacity="1" stop-color="rgb(1.408386%, 71.359253%, 72.372437%)" offset="0.515625"/><stop stop-opacity="1" stop-color="rgb(1.4328%, 71.060181%, 72.627258%)" offset="0.523438"/><stop stop-opacity="1" stop-color="rgb(1.45874%, 70.762634%, 72.88208%)" offset="0.53125"/><stop stop-opacity="1" stop-color="rgb(1.483154%, 70.465088%, 73.135376%)" offset="0.539062"/><stop stop-opacity="1" stop-color="rgb(1.507568%, 70.166016%, 73.390198%)" offset="0.546875"/><stop stop-opacity="1" stop-color="rgb(1.533508%, 69.868469%, 73.64502%)" offset="0.554687"/><stop stop-opacity="1" stop-color="rgb(1.557922%, 69.569397%, 73.899841%)" offset="0.5625"/><stop stop-opacity="1" stop-color="rgb(1.582336%, 69.271851%, 74.153137%)" offset="0.570312"/><stop stop-opacity="1" stop-color="rgb(1.608276%, 68.974304%, 74.407959%)" offset="0.578125"/><stop stop-opacity="1" stop-color="rgb(1.63269%, 68.675232%, 74.662781%)" offset="0.585938"/><stop stop-opacity="1" stop-color="rgb(1.657104%, 68.377686%, 74.917603%)" offset="0.59375"/><stop stop-opacity="1" stop-color="rgb(1.683044%, 68.078613%, 75.172424%)" offset="0.601562"/><stop stop-opacity="1" stop-color="rgb(1.707458%, 67.781067%, 75.42572%)" offset="0.609375"/><stop stop-opacity="1" stop-color="rgb(1.731873%, 67.483521%, 75.680542%)" offset="0.617188"/><stop stop-opacity="1" stop-color="rgb(1.757812%, 67.184448%, 75.935364%)" offset="0.625"/><stop stop-opacity="1" stop-color="rgb(1.782227%, 66.886902%, 76.190186%)" offset="0.632812"/><stop stop-opacity="1" stop-color="rgb(1.806641%, 66.58783%, 76.445007%)" offset="0.640625"/><stop stop-opacity="1" stop-color="rgb(1.832581%, 66.290283%, 76.698303%)" offset="0.648438"/><stop stop-opacity="1" stop-color="rgb(1.856995%, 65.992737%, 76.953125%)" offset="0.65625"/><stop stop-opacity="1" stop-color="rgb(1.882935%, 65.693665%, 77.207947%)" offset="0.664062"/><stop stop-opacity="1" stop-color="rgb(1.907349%, 65.396118%, 77.462769%)" offset="0.671875"/><stop stop-opacity="1" stop-color="rgb(1.931763%, 65.097046%, 77.716064%)" offset="0.679688"/><stop stop-opacity="1" stop-color="rgb(1.957703%, 64.7995%, 77.970886%)" offset="0.6875"/><stop stop-opacity="1" stop-color="rgb(1.983643%, 64.474487%, 78.248596%)" offset="0.75"/><stop stop-opacity="1" stop-color="rgb(1.998901%, 64.299011%, 78.399658%)" offset="0.80066"/><stop stop-opacity="1" stop-color="rgb(1.998901%, 64.299011%, 78.399658%)" offset="1"/></linearGradient><clipPath id="d08f259c39"><path d="M 570 152 L 607.117188 152 L 607.117188 190 L 570 190 Z M 570 152 " clip-rule="nonzero"/></clipPath><clipPath id="9057f4a461"><path d="M 607.082031 153.507812 L 606.757812 157.296875 C 606.59375 158.222656 605.917969 159.511719 605.246094 160.171875 L 601.015625 164.3125 C 600.347656 164.972656 600.027344 166.234375 600.300781 167.140625 L 604.734375 181.570312 C 605.015625 182.472656 604.992188 183.925781 604.691406 184.820312 L 604.644531 184.941406 C 604.335938 185.835938 603.675781 185.910156 603.164062 185.121094 L 594.769531 172.140625 C 594.261719 171.355469 593.269531 171.21875 592.5625 171.828125 L 584.230469 179.121094 C 583.527344 179.738281 583.09375 180.992188 583.269531 181.917969 L 584.027344 185.84375 C 584.210938 186.765625 584.152344 188.117188 583.910156 188.859375 C 583.664062 189.601562 583.042969 189.566406 582.515625 188.792969 L 579.75 184.710938 C 579.226562 183.945312 578.386719 183.675781 577.882812 184.132812 C 577.378906 184.59375 576.683594 184.988281 576.328125 185.007812 C 575.976562 185.03125 575.699219 184.8125 575.714844 184.523438 C 575.730469 184.230469 576.011719 183.496094 576.359375 182.886719 C 576.699219 182.273438 576.292969 181.441406 575.449219 181.023438 L 575.21875 180.910156 C 575.226562 180.890625 575.230469 180.863281 575.234375 180.84375 C 575.226562 180.863281 575.210938 180.878906 575.199219 180.898438 L 572.058594 179.339844 C 571.21875 178.933594 570.75 178.308594 571.015625 177.964844 C 571.285156 177.625 572.261719 177.390625 573.203125 177.445312 L 578.796875 177.75 C 579.734375 177.808594 580.914062 177.210938 581.425781 176.421875 L 587.148438 167.644531 C 587.664062 166.859375 587.414062 165.847656 586.59375 165.386719 L 573.777344 158.25 C 572.949219 157.800781 572.816406 157.140625 573.460938 156.792969 C 574.101562 156.457031 575.367188 156.34375 576.285156 156.546875 L 592.132812 159.625 C 593.050781 159.832031 594.296875 159.433594 594.917969 158.722656 L 599.109375 154.121094 C 599.734375 153.410156 600.984375 152.710938 601.914062 152.550781 L 605.683594 152.113281 C 606.613281 151.953125 607.234375 152.582031 607.082031 153.507812 Z M 607.082031 153.507812 " clip-rule="nonzero"/></clipPath><linearGradient x1="274.569627" gradientTransform="matrix(0.510208, 0, 0, 0.510952, 445.208749, 149.608631)" y1="-1.695548" x2="293.364977" gradientUnits="userSpaceOnUse" y2="83.554998" id="fa17f4b041"><stop stop-opacity="1" stop-color="rgb(5.099487%, 44.961548%, 90.09552%)" offset="0"/><stop stop-opacity="1" stop-color="rgb(5.099487%, 45.153809%, 90.135193%)" offset="0.015625"/><stop stop-opacity="1" stop-color="rgb(5.099487%, 45.539856%, 90.213013%)" offset="0.03125"/><stop stop-opacity="1" stop-color="rgb(5.099487%, 45.927429%, 90.292358%)" offset="0.046875"/><stop stop-opacity="1" stop-color="rgb(5.099487%, 46.313477%, 90.370178%)" offset="0.0625"/><stop stop-opacity="1" stop-color="rgb(5.099487%, 46.699524%, 90.447998%)" offset="0.078125"/><stop stop-opacity="1" stop-color="rgb(5.099487%, 47.087097%, 90.527344%)" offset="0.09375"/><stop stop-opacity="1" stop-color="rgb(5.099487%, 47.473145%, 90.605164%)" offset="0.109375"/><stop stop-opacity="1" stop-color="rgb(5.099487%, 47.859192%, 90.684509%)" offset="0.125"/><stop stop-opacity="1" stop-color="rgb(5.099487%, 48.246765%, 90.762329%)" offset="0.140625"/><stop stop-opacity="1" stop-color="rgb(5.099487%, 48.632812%, 90.840149%)" offset="0.15625"/><stop stop-opacity="1" stop-color="rgb(5.099487%, 49.01886%, 90.919495%)" offset="0.171875"/><stop stop-opacity="1" stop-color="rgb(5.099487%, 49.406433%, 90.997314%)" offset="0.175787"/><stop stop-opacity="1" stop-color="rgb(5.099487%, 49.60022%, 91.036987%)" offset="0.1875"/><stop stop-opacity="1" stop-color="rgb(5.099487%, 49.79248%, 91.07666%)" offset="0.203125"/><stop stop-opacity="1" stop-color="rgb(5.099487%, 50.178528%, 91.15448%)" offset="0.21875"/><stop stop-opacity="1" stop-color="rgb(5.099487%, 50.566101%, 91.2323%)" offset="0.234375"/><stop stop-opacity="1" stop-color="rgb(5.099487%, 50.952148%, 91.311646%)" offset="0.25"/><stop stop-opacity="1" stop-color="rgb(5.099487%, 51.338196%, 91.389465%)" offset="0.265625"/><stop stop-opacity="1" stop-color="rgb(5.099487%, 51.725769%, 91.468811%)" offset="0.28125"/><stop stop-opacity="1" stop-color="rgb(5.099487%, 52.111816%, 91.546631%)" offset="0.296875"/><stop stop-opacity="1" stop-color="rgb(5.099487%, 52.497864%, 91.625977%)" offset="0.3125"/><stop stop-opacity="1" stop-color="rgb(5.099487%, 52.885437%, 91.703796%)" offset="0.328125"/><stop stop-opacity="1" stop-color="rgb(5.099487%, 53.271484%, 91.781616%)" offset="0.34375"/><stop stop-opacity="1" stop-color="rgb(5.099487%, 53.657532%, 91.860962%)" offset="0.359375"/><stop stop-opacity="1" stop-color="rgb(5.099487%, 54.045105%, 91.938782%)" offset="0.375"/><stop stop-opacity="1" stop-color="rgb(5.099487%, 54.431152%, 92.018127%)" offset="0.390625"/><stop stop-opacity="1" stop-color="rgb(5.099487%, 54.8172%, 92.095947%)" offset="0.40625"/><stop stop-opacity="1" stop-color="rgb(5.099487%, 55.204773%, 92.173767%)" offset="0.421875"/><stop stop-opacity="1" stop-color="rgb(5.099487%, 55.59082%, 92.253113%)" offset="0.4375"/><stop stop-opacity="1" stop-color="rgb(5.099487%, 55.976868%, 92.330933%)" offset="0.453125"/><stop stop-opacity="1" stop-color="rgb(5.099487%, 56.364441%, 92.410278%)" offset="0.46875"/><stop stop-opacity="1" stop-color="rgb(5.099487%, 56.750488%, 92.488098%)" offset="0.484375"/><stop stop-opacity="1" stop-color="rgb(5.099487%, 57.136536%, 92.565918%)" offset="0.5"/><stop stop-opacity="1" stop-color="rgb(5.099487%, 57.524109%, 92.645264%)" offset="0.515625"/><stop stop-opacity="1" stop-color="rgb(5.099487%, 57.910156%, 92.723083%)" offset="0.53125"/><stop stop-opacity="1" stop-color="rgb(5.099487%, 58.296204%, 92.802429%)" offset="0.546875"/><stop stop-opacity="1" stop-color="rgb(5.099487%, 58.683777%, 92.880249%)" offset="0.5625"/><stop stop-opacity="1" stop-color="rgb(5.099487%, 59.069824%, 92.959595%)" offset="0.578125"/><stop stop-opacity="1" stop-color="rgb(5.099487%, 59.455872%, 93.037415%)" offset="0.59375"/><stop stop-opacity="1" stop-color="rgb(5.099487%, 59.843445%, 93.115234%)" offset="0.609375"/><stop stop-opacity="1" stop-color="rgb(5.099487%, 60.229492%, 93.19458%)" offset="0.625"/><stop stop-opacity="1" stop-color="rgb(5.099487%, 60.61554%, 93.2724%)" offset="0.640625"/><stop stop-opacity="1" stop-color="rgb(5.099487%, 61.001587%, 93.351746%)" offset="0.65625"/><stop stop-opacity="1" stop-color="rgb(5.099487%, 61.38916%, 93.429565%)" offset="0.671875"/><stop stop-opacity="1" stop-color="rgb(5.099487%, 61.775208%, 93.507385%)" offset="0.6875"/><stop stop-opacity="1" stop-color="rgb(5.099487%, 62.161255%, 93.586731%)" offset="0.703125"/><stop stop-opacity="1" stop-color="rgb(5.099487%, 62.548828%, 93.664551%)" offset="0.71875"/><stop stop-opacity="1" stop-color="rgb(5.099487%, 62.934875%, 93.743896%)" offset="0.734375"/><stop stop-opacity="1" stop-color="rgb(5.099487%, 63.320923%, 93.821716%)" offset="0.75"/><stop stop-opacity="1" stop-color="rgb(5.099487%, 63.708496%, 93.901062%)" offset="0.765625"/><stop stop-opacity="1" stop-color="rgb(5.099487%, 64.094543%, 93.978882%)" offset="0.78125"/><stop stop-opacity="1" stop-color="rgb(5.099487%, 64.480591%, 94.056702%)" offset="0.796875"/><stop stop-opacity="1" stop-color="rgb(5.099487%, 64.868164%, 94.136047%)" offset="0.8125"/><stop stop-opacity="1" stop-color="rgb(5.099487%, 65.254211%, 94.213867%)" offset="0.824213"/><stop stop-opacity="1" stop-color="rgb(5.099487%, 65.447998%, 94.25354%)" offset="0.828125"/><stop stop-opacity="1" stop-color="rgb(5.099487%, 65.640259%, 94.293213%)" offset="0.84375"/><stop stop-opacity="1" stop-color="rgb(5.099487%, 66.027832%, 94.371033%)" offset="0.859375"/><stop stop-opacity="1" stop-color="rgb(5.099487%, 66.413879%, 94.448853%)" offset="0.875"/><stop stop-opacity="1" stop-color="rgb(5.099487%, 66.799927%, 94.528198%)" offset="0.890625"/><stop stop-opacity="1" stop-color="rgb(5.099487%, 67.1875%, 94.606018%)" offset="0.90625"/><stop stop-opacity="1" stop-color="rgb(5.099487%, 67.573547%, 94.685364%)" offset="0.921875"/><stop stop-opacity="1" stop-color="rgb(5.099487%, 67.959595%, 94.763184%)" offset="0.9375"/><stop stop-opacity="1" stop-color="rgb(5.099487%, 68.347168%, 94.841003%)" offset="0.953125"/><stop stop-opacity="1" stop-color="rgb(5.099487%, 68.733215%, 94.920349%)" offset="0.96875"/><stop stop-opacity="1" stop-color="rgb(5.099487%, 69.119263%, 94.998169%)" offset="0.984375"/><stop stop-opacity="1" stop-color="rgb(5.099487%, 69.506836%, 95.077515%)" offset="1"/></linearGradient><clipPath id="a300d9a528"><path d="M 575 180 L 576 180 L 576 181 L 575 181 Z M 575 180 " clip-rule="nonzero"/></clipPath><clipPath id="3529da2796"><path d="M 575.195312 180.894531 L 575.210938 180.90625 C 575.214844 180.882812 575.21875 180.859375 575.226562 180.839844 C 575.214844 180.859375 575.203125 180.878906 575.195312 180.894531 Z M 575.195312 180.894531 " clip-rule="nonzero"/></clipPath><linearGradient x1="-1899.397217" gradientTransform="matrix(-0.127134, 0.494836, -0.494115, -0.127319, -626.508077, 873.31763)" y1="-1943.262292" x2="-1899.467668" gradientUnits="userSpaceOnUse" y2="-1943.391253" id="8ad271c6b2"><stop stop-opacity="1" stop-color="rgb(5.099487%, 58.894348%, 92.9245%)" offset="0"/><stop stop-opacity="1" stop-color="rgb(5.099487%, 58.8974%, 92.9245%)" offset="0.459526"/><stop stop-opacity="1" stop-color="rgb(5.099487%, 58.901978%, 92.9245%)" offset="0.5"/><stop stop-opacity="1" stop-color="rgb(5.099487%, 58.905029%, 92.9245%)" offset="0.540474"/><stop stop-opacity="1" stop-color="rgb(5.099487%, 58.909607%, 92.926025%)" offset="1"/></linearGradient></defs><g clip-path="url(#bb15aef6d1)"><g clip-path="url(#5ac3f151e5)"><path fill="url(#41357e2573)" d="M 445.207031 149.609375 L 445.207031 230.808594 L 567.230469 230.808594 L 567.230469 149.609375 Z M 445.207031 149.609375 " fill-rule="nonzero"/></g></g><g clip-path="url(#d41ade972c)"><g clip-path="url(#9719a5e9dd)"><path fill="url(#ca80c81644)" d="M 471.21875 198.066406 L 471.21875 327.273438 L 570.929688 327.273438 L 570.929688 198.066406 Z M 471.21875 198.066406 " fill-rule="nonzero"/></g></g><g clip-path="url(#d08f259c39)"><g clip-path="url(#9057f4a461)"><path fill="url(#fa17f4b041)" d="M 570.75 151.953125 L 570.75 189.601562 L 607.117188 189.601562 L 607.117188 151.953125 Z M 570.75 151.953125 " fill-rule="nonzero"/></g></g><g clip-path="url(#a300d9a528)"><g clip-path="url(#3529da2796)"><path fill="url(#8ad271c6b2)" d="M 575.242188 180.84375 L 575.195312 180.832031 L 575.179688 180.898438 L 575.222656 180.910156 Z M 575.242188 180.84375 " fill-rule="nonzero"/></g></g><g fill="#545454" fill-opacity="1"><g transform="translate(465.280434, 401.841246)"><g><path d="M 25.34375 -30.796875 L 25.34375 -27.015625 L 15.125 -27.015625 L 15.125 0 L 10.953125 0 L 10.953125 -27.015625 L 0.734375 -27.015625 L 0.734375 -30.796875 Z M 25.34375 -30.796875 "/></g></g></g><g fill="#545454" fill-opacity="1"><g transform="translate(491.361008, 401.841246)"><g><path d="M 7.71875 -11.046875 L 7.71875 0 L 3.53125 0 L 3.53125 -30.796875 L 14 -30.796875 C 18.351562 -30.796875 21.472656 -30.050781 23.359375 -28.5625 C 25.242188 -27.070312 26.1875 -24.609375 26.1875 -21.171875 C 26.1875 -18.484375 25.585938 -16.34375 24.390625 -14.75 C 23.191406 -13.164062 21.382812 -12.097656 18.96875 -11.546875 L 27.015625 0 L 22.015625 0 L 14.546875 -11.046875 Z M 21.953125 -21.171875 C 21.953125 -23.265625 21.347656 -24.757812 20.140625 -25.65625 C 18.929688 -26.5625 16.882812 -27.015625 14 -27.015625 L 7.71875 -27.015625 L 7.71875 -14.734375 L 14 -14.734375 C 16.8125 -14.734375 18.835938 -15.238281 20.078125 -16.25 C 21.328125 -17.269531 21.953125 -18.910156 21.953125 -21.171875 Z M 21.953125 -21.171875 "/></g></g></g><g fill="#545454" fill-opacity="1"><g transform="translate(519.799152, 401.841246)"><g><path d="M 7.71875 -30.796875 L 7.71875 0 L 3.53125 0 L 3.53125 -30.796875 Z M 7.71875 -30.796875 "/></g></g></g><g fill="#545454" fill-opacity="1"><g transform="translate(531.046704, 401.841246)"><g><path d="M 7.71875 -9.96875 L 7.71875 0 L 3.53125 0 L 3.53125 -30.796875 L 14 -30.796875 C 18.351562 -30.796875 21.472656 -30.007812 23.359375 -28.4375 C 25.242188 -26.863281 26.1875 -24.296875 26.1875 -20.734375 C 26.1875 -17.097656 25.203125 -14.394531 23.234375 -12.625 C 21.265625 -10.851562 18.234375 -9.96875 14.140625 -9.96875 Z M 21.953125 -20.734375 C 21.953125 -22.992188 21.335938 -24.601562 20.109375 -25.5625 C 18.890625 -26.53125 16.851562 -27.015625 14 -27.015625 L 7.71875 -27.015625 L 7.71875 -13.65625 L 14 -13.65625 C 16.851562 -13.65625 18.890625 -14.210938 20.109375 -15.328125 C 21.335938 -16.441406 21.953125 -18.242188 21.953125 -20.734375 Z M 21.953125 -20.734375 "/></g></g></g><g fill="#545454" fill-opacity="1"><g transform="translate(431.780783, 469.776091)"><g><path d="M 25.34375 -30.796875 L 25.34375 -27.015625 L 15.125 -27.015625 L 15.125 0 L 10.953125 0 L 10.953125 -27.015625 L 0.734375 -27.015625 L 0.734375 -30.796875 Z M 25.34375 -30.796875 "/></g></g></g><g fill="#545454" fill-opacity="1"><g transform="translate(457.861357, 469.776091)"><g><path d="M 7.71875 -11.046875 L 7.71875 0 L 3.53125 0 L 3.53125 -30.796875 L 14 -30.796875 C 18.351562 -30.796875 21.472656 -30.050781 23.359375 -28.5625 C 25.242188 -27.070312 26.1875 -24.609375 26.1875 -21.171875 C 26.1875 -18.484375 25.585938 -16.34375 24.390625 -14.75 C 23.191406 -13.164062 21.382812 -12.097656 18.96875 -11.546875 L 27.015625 0 L 22.015625 0 L 14.546875 -11.046875 Z M 21.953125 -21.171875 C 21.953125 -23.265625 21.347656 -24.757812 20.140625 -25.65625 C 18.929688 -26.5625 16.882812 -27.015625 14 -27.015625 L 7.71875 -27.015625 L 7.71875 -14.734375 L 14 -14.734375 C 16.8125 -14.734375 18.835938 -15.238281 20.078125 -16.25 C 21.328125 -17.269531 21.953125 -18.910156 21.953125 -21.171875 Z M 21.953125 -21.171875 "/></g></g></g><g fill="#545454" fill-opacity="1"><g transform="translate(486.299502, 469.776091)"><g><path d="M 23.96875 -3.9375 L 23.96875 0 L 3.53125 0 L 3.53125 -30.796875 L 23.53125 -30.796875 L 23.53125 -27.015625 L 7.71875 -27.015625 L 7.71875 -17.59375 L 21.71875 -17.59375 L 21.71875 -13.90625 L 7.71875 -13.90625 L 7.71875 -3.9375 Z M 23.96875 -3.9375 "/></g></g></g><g fill="#545454" fill-opacity="1"><g transform="translate(511.987151, 469.776091)"><g><path d="M 4.8125 0 L 0.390625 0 L 12.578125 -30.796875 L 16.90625 -30.796875 L 28.9375 0 L 24.515625 0 L 21.71875 -7.421875 L 7.609375 -7.421875 Z M 14.640625 -26.96875 C 14.304688 -25.820312 13.921875 -24.609375 13.484375 -23.328125 C 13.046875 -22.054688 12.597656 -20.78125 12.140625 -19.5 L 8.984375 -11.109375 L 20.34375 -11.109375 L 17.1875 -19.5 C 16.539062 -21.300781 16.023438 -22.757812 15.640625 -23.875 C 15.265625 -24.988281 14.929688 -26.019531 14.640625 -26.96875 Z M 14.640625 -26.96875 "/></g></g></g><g fill="#545454" fill-opacity="1"><g transform="translate(541.358484, 469.776091)"><g><path d="M 25.34375 -30.796875 L 25.34375 -27.015625 L 15.125 -27.015625 L 15.125 0 L 10.953125 0 L 10.953125 -27.015625 L 0.734375 -27.015625 L 0.734375 -30.796875 Z M 25.34375 -30.796875 "/></g></g></g><g fill="#545454" fill-opacity="1"><g transform="translate(567.439058, 469.776091)"><g><path d="M 15.421875 -12.921875 L 7.953125 -14.6875 C 5.890625 -15.175781 4.398438 -16.019531 3.484375 -17.21875 C 2.566406 -18.414062 2.109375 -20.078125 2.109375 -22.203125 C 2.109375 -25.316406 3 -27.609375 4.78125 -29.078125 C 6.570312 -30.554688 9.347656 -31.296875 13.109375 -31.296875 C 14.679688 -31.296875 16.097656 -31.21875 17.359375 -31.0625 C 18.617188 -30.914062 19.789062 -30.695312 20.875 -30.40625 L 20.875 -26.625 C 19.5 -26.945312 18.1875 -27.175781 16.9375 -27.3125 C 15.695312 -27.445312 14.40625 -27.515625 13.0625 -27.515625 C 10.539062 -27.515625 8.769531 -27.144531 7.75 -26.40625 C 6.738281 -25.664062 6.234375 -24.363281 6.234375 -22.5 C 6.234375 -21.320312 6.46875 -20.425781 6.9375 -19.8125 C 7.414062 -19.207031 8.195312 -18.773438 9.28125 -18.515625 L 16.703125 -16.75 C 19.316406 -16.125 21.054688 -15.242188 21.921875 -14.109375 C 22.796875 -12.984375 23.234375 -11.242188 23.234375 -8.890625 C 23.234375 -5.515625 22.359375 -3.125 20.609375 -1.71875 C 18.859375 -0.3125 16.082031 0.390625 12.28125 0.390625 C 10.28125 0.390625 8.351562 0.257812 6.5 0 C 4.65625 -0.257812 3.191406 -0.601562 2.109375 -1.03125 L 2.109375 -4.96875 C 3.648438 -4.507812 5.285156 -4.15625 7.015625 -3.90625 C 8.753906 -3.65625 10.507812 -3.53125 12.28125 -3.53125 C 14.738281 -3.53125 16.457031 -3.890625 17.4375 -4.609375 C 18.414062 -5.335938 18.90625 -6.734375 18.90625 -8.796875 C 18.90625 -10.066406 18.664062 -10.988281 18.1875 -11.5625 C 17.71875 -12.132812 16.796875 -12.585938 15.421875 -12.921875 Z M 15.421875 -12.921875 "/></g></g></g></svg>