<svg xmlns="http://www.w3.org/2000/svg" xmlns:xlink="http://www.w3.org/1999/xlink" width="1366" zoomAndPan="magnify" viewBox="0 0 1024.5 576" height="768" preserveAspectRatio="xMidYMid meet" version="1.0"><defs><g/><clipPath id="4440695f1b"><path d="M 79.675781 57.710938 L 404 57.710938 L 404 271 L 79.675781 271 Z M 79.675781 57.710938 " clip-rule="nonzero"/></clipPath><clipPath id="93f894d064"><path d="M 246.761719 57.710938 C 154.5 57.710938 79.710938 132.394531 79.710938 224.527344 C 79.710938 237.890625 81.882812 252.148438 85.691406 266.933594 C 130.257812 272.875 175.839844 271.117188 219.769531 261.410156 C 285.660156 246.855469 361.097656 212.65625 403.96875 168.054688 C 380.769531 103.703125 319.164062 57.710938 246.761719 57.710938 Z M 131.882812 165.292969 L 131.84375 164.589844 C 131.84375 149.359375 144.207031 137.011719 159.476562 137.011719 C 162.675781 137.011719 165.738281 137.578125 168.597656 138.582031 C 171.554688 130.648438 179.1875 124.988281 188.152344 124.988281 C 198.25 124.988281 206.683594 132.152344 208.625 141.683594 C 209.113281 141.65625 209.597656 141.613281 210.101562 141.613281 C 223.875 141.613281 235.222656 151.957031 236.8125 165.308594 L 131.882812 165.308594 Z M 244.214844 204.476562 L 244.199219 204.125 C 244.199219 196.503906 250.382812 190.328125 258.015625 190.328125 C 259.617188 190.328125 261.148438 190.613281 262.570312 191.113281 C 264.050781 187.148438 267.859375 184.316406 272.347656 184.316406 C 277.402344 184.316406 281.621094 187.90625 282.582031 192.65625 C 282.828125 192.644531 283.070312 192.617188 283.328125 192.617188 C 290.214844 192.617188 295.898438 197.789062 296.683594 204.464844 L 244.214844 204.464844 Z M 244.214844 204.476562 " clip-rule="nonzero"/></clipPath><linearGradient x1="166.613493" gradientTransform="matrix(1.355816, 0, 0, 1.353916, 79.712257, 57.71238)" y1="198.552061" x2="44.780457" gradientUnits="userSpaceOnUse" y2="-24.46347" id="d171387ba1"><stop stop-opacity="1" stop-color="rgb(5.099487%, 43.499756%, 89.7995%)" offset="0"/><stop stop-opacity="1" stop-color="rgb(5.099487%, 43.499756%, 89.7995%)" offset="0.25"/><stop stop-opacity="1" stop-color="rgb(5.099487%, 43.499756%, 89.7995%)" offset="0.28125"/><stop stop-opacity="1" stop-color="rgb(5.099487%, 43.534851%, 89.807129%)" offset="0.289062"/><stop stop-opacity="1" stop-color="rgb(5.099487%, 43.746948%, 89.849854%)" offset="0.296875"/><stop stop-opacity="1" stop-color="rgb(5.099487%, 44.099426%, 89.920044%)" offset="0.304688"/><stop stop-opacity="1" stop-color="rgb(5.099487%, 44.451904%, 89.99176%)" offset="0.3125"/><stop stop-opacity="1" stop-color="rgb(5.099487%, 44.804382%, 90.063477%)" offset="0.320312"/><stop stop-opacity="1" stop-color="rgb(5.099487%, 45.15686%, 90.135193%)" offset="0.328125"/><stop stop-opacity="1" stop-color="rgb(5.099487%, 45.509338%, 90.206909%)" offset="0.335937"/><stop stop-opacity="1" stop-color="rgb(5.099487%, 45.861816%, 90.278625%)" offset="0.34375"/><stop stop-opacity="1" stop-color="rgb(5.099487%, 46.214294%, 90.350342%)" offset="0.351562"/><stop stop-opacity="1" stop-color="rgb(5.099487%, 46.566772%, 90.420532%)" offset="0.359375"/><stop stop-opacity="1" stop-color="rgb(5.099487%, 46.91925%, 90.492249%)" offset="0.367187"/><stop stop-opacity="1" stop-color="rgb(5.099487%, 47.270203%, 90.563965%)" offset="0.375"/><stop stop-opacity="1" stop-color="rgb(5.099487%, 47.622681%, 90.635681%)" offset="0.382812"/><stop stop-opacity="1" stop-color="rgb(5.099487%, 47.975159%, 90.707397%)" offset="0.390625"/><stop stop-opacity="1" stop-color="rgb(5.099487%, 48.327637%, 90.779114%)" offset="0.398437"/><stop stop-opacity="1" stop-color="rgb(5.099487%, 48.680115%, 90.85083%)" offset="0.40625"/><stop stop-opacity="1" stop-color="rgb(5.099487%, 49.032593%, 90.921021%)" offset="0.414062"/><stop stop-opacity="1" stop-color="rgb(5.099487%, 49.385071%, 90.992737%)" offset="0.421875"/><stop stop-opacity="1" stop-color="rgb(5.099487%, 49.737549%, 91.064453%)" offset="0.429688"/><stop stop-opacity="1" stop-color="rgb(5.099487%, 50.090027%, 91.136169%)" offset="0.4375"/><stop stop-opacity="1" stop-color="rgb(5.099487%, 50.442505%, 91.207886%)" offset="0.445312"/><stop stop-opacity="1" stop-color="rgb(5.099487%, 50.794983%, 91.279602%)" offset="0.451191"/><stop stop-opacity="1" stop-color="rgb(5.099487%, 50.970459%, 91.316223%)" offset="0.453125"/><stop stop-opacity="1" stop-color="rgb(5.099487%, 51.145935%, 91.351318%)" offset="0.460938"/><stop stop-opacity="1" stop-color="rgb(5.099487%, 51.498413%, 91.423035%)" offset="0.46875"/><stop stop-opacity="1" stop-color="rgb(5.099487%, 51.850891%, 91.493225%)" offset="0.476562"/><stop stop-opacity="1" stop-color="rgb(5.099487%, 52.203369%, 91.564941%)" offset="0.484375"/><stop stop-opacity="1" stop-color="rgb(5.099487%, 52.555847%, 91.636658%)" offset="0.492187"/><stop stop-opacity="1" stop-color="rgb(5.099487%, 52.908325%, 91.708374%)" offset="0.5"/><stop stop-opacity="1" stop-color="rgb(5.099487%, 53.260803%, 91.78009%)" offset="0.507812"/><stop stop-opacity="1" stop-color="rgb(5.099487%, 53.613281%, 91.851807%)" offset="0.515625"/><stop stop-opacity="1" stop-color="rgb(5.099487%, 53.965759%, 91.923523%)" offset="0.523438"/><stop stop-opacity="1" stop-color="rgb(5.099487%, 54.318237%, 91.993713%)" offset="0.53125"/><stop stop-opacity="1" stop-color="rgb(5.099487%, 54.669189%, 92.06543%)" offset="0.539062"/><stop stop-opacity="1" stop-color="rgb(5.099487%, 55.021667%, 92.137146%)" offset="0.546875"/><stop stop-opacity="1" stop-color="rgb(5.099487%, 55.374146%, 92.208862%)" offset="0.548809"/><stop stop-opacity="1" stop-color="rgb(5.099487%, 55.551147%, 92.245483%)" offset="0.554688"/><stop stop-opacity="1" stop-color="rgb(5.099487%, 55.726624%, 92.280579%)" offset="0.5625"/><stop stop-opacity="1" stop-color="rgb(5.099487%, 56.079102%, 92.352295%)" offset="0.570312"/><stop stop-opacity="1" stop-color="rgb(5.099487%, 56.43158%, 92.424011%)" offset="0.578125"/><stop stop-opacity="1" stop-color="rgb(5.099487%, 56.784058%, 92.494202%)" offset="0.585937"/><stop stop-opacity="1" stop-color="rgb(5.099487%, 57.136536%, 92.565918%)" offset="0.59375"/><stop stop-opacity="1" stop-color="rgb(5.099487%, 57.489014%, 92.637634%)" offset="0.601562"/><stop stop-opacity="1" stop-color="rgb(5.099487%, 57.841492%, 92.709351%)" offset="0.609375"/><stop stop-opacity="1" stop-color="rgb(5.099487%, 58.19397%, 92.781067%)" offset="0.617187"/><stop stop-opacity="1" stop-color="rgb(5.099487%, 58.544922%, 92.852783%)" offset="0.625"/><stop stop-opacity="1" stop-color="rgb(5.099487%, 58.8974%, 92.9245%)" offset="0.632812"/><stop stop-opacity="1" stop-color="rgb(5.099487%, 59.249878%, 92.99469%)" offset="0.640625"/><stop stop-opacity="1" stop-color="rgb(5.099487%, 59.602356%, 93.066406%)" offset="0.648438"/><stop stop-opacity="1" stop-color="rgb(5.099487%, 59.954834%, 93.138123%)" offset="0.65625"/><stop stop-opacity="1" stop-color="rgb(5.099487%, 60.307312%, 93.209839%)" offset="0.664062"/><stop stop-opacity="1" stop-color="rgb(5.099487%, 60.65979%, 93.281555%)" offset="0.671875"/><stop stop-opacity="1" stop-color="rgb(5.099487%, 61.012268%, 93.353271%)" offset="0.679688"/><stop stop-opacity="1" stop-color="rgb(5.099487%, 61.364746%, 93.424988%)" offset="0.6875"/><stop stop-opacity="1" stop-color="rgb(5.099487%, 61.717224%, 93.496704%)" offset="0.695312"/><stop stop-opacity="1" stop-color="rgb(5.099487%, 62.068176%, 93.566895%)" offset="0.703125"/><stop stop-opacity="1" stop-color="rgb(5.099487%, 62.420654%, 93.638611%)" offset="0.710937"/><stop stop-opacity="1" stop-color="rgb(5.099487%, 62.773132%, 93.710327%)" offset="0.71875"/><stop stop-opacity="1" stop-color="rgb(5.099487%, 63.12561%, 93.782043%)" offset="0.726562"/><stop stop-opacity="1" stop-color="rgb(5.099487%, 63.478088%, 93.85376%)" offset="0.734375"/><stop stop-opacity="1" stop-color="rgb(5.099487%, 63.830566%, 93.925476%)" offset="0.742187"/><stop stop-opacity="1" stop-color="rgb(5.099487%, 64.183044%, 93.997192%)" offset="0.75"/><stop stop-opacity="1" stop-color="rgb(5.099487%, 64.535522%, 94.067383%)" offset="0.757812"/><stop stop-opacity="1" stop-color="rgb(5.099487%, 64.888%, 94.139099%)" offset="0.765625"/><stop stop-opacity="1" stop-color="rgb(5.099487%, 65.240479%, 94.210815%)" offset="0.773438"/><stop stop-opacity="1" stop-color="rgb(5.099487%, 65.592957%, 94.282532%)" offset="0.78125"/><stop stop-opacity="1" stop-color="rgb(5.099487%, 65.943909%, 94.354248%)" offset="0.789062"/><stop stop-opacity="1" stop-color="rgb(5.099487%, 66.296387%, 94.425964%)" offset="0.796875"/><stop stop-opacity="1" stop-color="rgb(5.099487%, 66.648865%, 94.497681%)" offset="0.804688"/><stop stop-opacity="1" stop-color="rgb(5.099487%, 67.001343%, 94.567871%)" offset="0.8125"/><stop stop-opacity="1" stop-color="rgb(5.099487%, 67.353821%, 94.639587%)" offset="0.820312"/><stop stop-opacity="1" stop-color="rgb(5.099487%, 67.706299%, 94.711304%)" offset="0.828125"/><stop stop-opacity="1" stop-color="rgb(5.099487%, 68.058777%, 94.78302%)" offset="0.835937"/><stop stop-opacity="1" stop-color="rgb(5.099487%, 68.411255%, 94.854736%)" offset="0.84375"/><stop stop-opacity="1" stop-color="rgb(5.099487%, 68.763733%, 94.926453%)" offset="0.851562"/><stop stop-opacity="1" stop-color="rgb(5.099487%, 69.116211%, 94.998169%)" offset="0.859375"/><stop stop-opacity="1" stop-color="rgb(5.099487%, 69.468689%, 95.068359%)" offset="0.867187"/><stop stop-opacity="1" stop-color="rgb(5.099487%, 69.819641%, 95.140076%)" offset="0.875"/><stop stop-opacity="1" stop-color="rgb(5.099487%, 70.172119%, 95.211792%)" offset="0.882812"/><stop stop-opacity="1" stop-color="rgb(5.099487%, 70.474243%, 95.272827%)" offset="0.890625"/><stop stop-opacity="1" stop-color="rgb(5.099487%, 70.599365%, 95.298767%)" offset="0.90625"/><stop stop-opacity="1" stop-color="rgb(5.099487%, 70.599365%, 95.298767%)" offset="0.9375"/><stop stop-opacity="1" stop-color="rgb(5.099487%, 70.599365%, 95.298767%)" offset="1"/></linearGradient><clipPath id="f6617fa25f"><path d="M 148 186 L 414 186 L 414 528.484375 L 148 528.484375 Z M 148 186 " clip-rule="nonzero"/></clipPath><clipPath id="51d3c9fe61"><path d="M 413.800781 224.527344 C 413.800781 340.574219 246.75 528.484375 246.75 528.484375 C 246.75 528.484375 194.808594 470.519531 148.832031 398.871094 C 193.546875 381.675781 236.835938 361.367188 276.683594 334.941406 C 332.761719 297.734375 381.910156 246.867188 409.296875 186.117188 C 412.253906 198.480469 413.800781 211.3125 413.800781 224.527344 Z M 413.800781 224.527344 " clip-rule="nonzero"/></clipPath><linearGradient x1="207.256426" gradientTransform="matrix(1.355816, 0, 0, 1.353916, 79.712257, 57.71238)" y1="360.323155" x2="115.080024" gradientUnits="userSpaceOnUse" y2="74.190459" id="3f8b4d56b2"><stop stop-opacity="1" stop-color="rgb(0%, 88.198853%, 57.998657%)" offset="0"/><stop stop-opacity="1" stop-color="rgb(0%, 88.198853%, 57.998657%)" offset="0.0625"/><stop stop-opacity="1" stop-color="rgb(0.012207%, 88.052368%, 58.123779%)" offset="0.078125"/><stop stop-opacity="1" stop-color="rgb(0.0366211%, 87.757874%, 58.375549%)" offset="0.0859375"/><stop stop-opacity="1" stop-color="rgb(0.0610352%, 87.460327%, 58.628845%)" offset="0.09375"/><stop stop-opacity="1" stop-color="rgb(0.0854492%, 87.161255%, 58.883667%)" offset="0.101562"/><stop stop-opacity="1" stop-color="rgb(0.111389%, 86.863708%, 59.138489%)" offset="0.109375"/><stop stop-opacity="1" stop-color="rgb(0.135803%, 86.564636%, 59.393311%)" offset="0.117187"/><stop stop-opacity="1" stop-color="rgb(0.160217%, 86.26709%, 59.648132%)" offset="0.125"/><stop stop-opacity="1" stop-color="rgb(0.186157%, 85.969543%, 59.901428%)" offset="0.132812"/><stop stop-opacity="1" stop-color="rgb(0.210571%, 85.670471%, 60.15625%)" offset="0.140625"/><stop stop-opacity="1" stop-color="rgb(0.234985%, 85.372925%, 60.411072%)" offset="0.148437"/><stop stop-opacity="1" stop-color="rgb(0.260925%, 85.073853%, 60.665894%)" offset="0.15625"/><stop stop-opacity="1" stop-color="rgb(0.285339%, 84.776306%, 60.920715%)" offset="0.164062"/><stop stop-opacity="1" stop-color="rgb(0.309753%, 84.47876%, 61.174011%)" offset="0.171875"/><stop stop-opacity="1" stop-color="rgb(0.335693%, 84.179688%, 61.428833%)" offset="0.179687"/><stop stop-opacity="1" stop-color="rgb(0.360107%, 83.882141%, 61.683655%)" offset="0.1875"/><stop stop-opacity="1" stop-color="rgb(0.384521%, 83.583069%, 61.938477%)" offset="0.195312"/><stop stop-opacity="1" stop-color="rgb(0.410461%, 83.285522%, 62.191772%)" offset="0.19934"/><stop stop-opacity="1" stop-color="rgb(0.422668%, 83.137512%, 62.319946%)" offset="0.203125"/><stop stop-opacity="1" stop-color="rgb(0.434875%, 82.987976%, 62.446594%)" offset="0.210937"/><stop stop-opacity="1" stop-color="rgb(0.45929%, 82.688904%, 62.701416%)" offset="0.21875"/><stop stop-opacity="1" stop-color="rgb(0.485229%, 82.391357%, 62.956238%)" offset="0.226562"/><stop stop-opacity="1" stop-color="rgb(0.509644%, 82.092285%, 63.21106%)" offset="0.234375"/><stop stop-opacity="1" stop-color="rgb(0.535583%, 81.794739%, 63.464355%)" offset="0.242187"/><stop stop-opacity="1" stop-color="rgb(0.559998%, 81.497192%, 63.719177%)" offset="0.25"/><stop stop-opacity="1" stop-color="rgb(0.584412%, 81.19812%, 63.973999%)" offset="0.257812"/><stop stop-opacity="1" stop-color="rgb(0.610352%, 80.900574%, 64.228821%)" offset="0.265625"/><stop stop-opacity="1" stop-color="rgb(0.634766%, 80.601501%, 64.483643%)" offset="0.273438"/><stop stop-opacity="1" stop-color="rgb(0.65918%, 80.303955%, 64.736938%)" offset="0.28125"/><stop stop-opacity="1" stop-color="rgb(0.68512%, 80.006409%, 64.99176%)" offset="0.289062"/><stop stop-opacity="1" stop-color="rgb(0.709534%, 79.707336%, 65.246582%)" offset="0.296875"/><stop stop-opacity="1" stop-color="rgb(0.733948%, 79.40979%, 65.501404%)" offset="0.304688"/><stop stop-opacity="1" stop-color="rgb(0.759888%, 79.110718%, 65.7547%)" offset="0.3125"/><stop stop-opacity="1" stop-color="rgb(0.784302%, 78.813171%, 66.009521%)" offset="0.320312"/><stop stop-opacity="1" stop-color="rgb(0.808716%, 78.515625%, 66.264343%)" offset="0.328125"/><stop stop-opacity="1" stop-color="rgb(0.834656%, 78.216553%, 66.519165%)" offset="0.335938"/><stop stop-opacity="1" stop-color="rgb(0.85907%, 77.919006%, 66.773987%)" offset="0.34375"/><stop stop-opacity="1" stop-color="rgb(0.883484%, 77.619934%, 67.027283%)" offset="0.351562"/><stop stop-opacity="1" stop-color="rgb(0.909424%, 77.322388%, 67.282104%)" offset="0.359375"/><stop stop-opacity="1" stop-color="rgb(0.933838%, 77.023315%, 67.536926%)" offset="0.367187"/><stop stop-opacity="1" stop-color="rgb(0.959778%, 76.725769%, 67.791748%)" offset="0.375"/><stop stop-opacity="1" stop-color="rgb(0.984192%, 76.428223%, 68.04657%)" offset="0.382812"/><stop stop-opacity="1" stop-color="rgb(1.008606%, 76.12915%, 68.299866%)" offset="0.390625"/><stop stop-opacity="1" stop-color="rgb(1.034546%, 75.831604%, 68.554688%)" offset="0.398438"/><stop stop-opacity="1" stop-color="rgb(1.05896%, 75.532532%, 68.809509%)" offset="0.40625"/><stop stop-opacity="1" stop-color="rgb(1.083374%, 75.234985%, 69.064331%)" offset="0.414062"/><stop stop-opacity="1" stop-color="rgb(1.109314%, 74.937439%, 69.317627%)" offset="0.421875"/><stop stop-opacity="1" stop-color="rgb(1.133728%, 74.638367%, 69.572449%)" offset="0.429687"/><stop stop-opacity="1" stop-color="rgb(1.158142%, 74.34082%, 69.827271%)" offset="0.4375"/><stop stop-opacity="1" stop-color="rgb(1.184082%, 74.041748%, 70.082092%)" offset="0.445312"/><stop stop-opacity="1" stop-color="rgb(1.208496%, 73.744202%, 70.336914%)" offset="0.453125"/><stop stop-opacity="1" stop-color="rgb(1.23291%, 73.446655%, 70.59021%)" offset="0.460938"/><stop stop-opacity="1" stop-color="rgb(1.25885%, 73.147583%, 70.845032%)" offset="0.46875"/><stop stop-opacity="1" stop-color="rgb(1.283264%, 72.850037%, 71.099854%)" offset="0.476562"/><stop stop-opacity="1" stop-color="rgb(1.307678%, 72.550964%, 71.354675%)" offset="0.484375"/><stop stop-opacity="1" stop-color="rgb(1.333618%, 72.253418%, 71.609497%)" offset="0.492187"/><stop stop-opacity="1" stop-color="rgb(1.358032%, 71.955872%, 71.862793%)" offset="0.5"/><stop stop-opacity="1" stop-color="rgb(1.382446%, 71.656799%, 72.117615%)" offset="0.507812"/><stop stop-opacity="1" stop-color="rgb(1.408386%, 71.359253%, 72.372437%)" offset="0.515625"/><stop stop-opacity="1" stop-color="rgb(1.4328%, 71.060181%, 72.627258%)" offset="0.523438"/><stop stop-opacity="1" stop-color="rgb(1.45874%, 70.762634%, 72.88208%)" offset="0.53125"/><stop stop-opacity="1" stop-color="rgb(1.483154%, 70.465088%, 73.135376%)" offset="0.539062"/><stop stop-opacity="1" stop-color="rgb(1.507568%, 70.166016%, 73.390198%)" offset="0.546875"/><stop stop-opacity="1" stop-color="rgb(1.533508%, 69.868469%, 73.64502%)" offset="0.554688"/><stop stop-opacity="1" stop-color="rgb(1.557922%, 69.569397%, 73.899841%)" offset="0.5625"/><stop stop-opacity="1" stop-color="rgb(1.582336%, 69.271851%, 74.153137%)" offset="0.570312"/><stop stop-opacity="1" stop-color="rgb(1.608276%, 68.974304%, 74.407959%)" offset="0.578125"/><stop stop-opacity="1" stop-color="rgb(1.63269%, 68.675232%, 74.662781%)" offset="0.585938"/><stop stop-opacity="1" stop-color="rgb(1.657104%, 68.377686%, 74.917603%)" offset="0.59375"/><stop stop-opacity="1" stop-color="rgb(1.683044%, 68.078613%, 75.172424%)" offset="0.601562"/><stop stop-opacity="1" stop-color="rgb(1.707458%, 67.781067%, 75.42572%)" offset="0.609375"/><stop stop-opacity="1" stop-color="rgb(1.731873%, 67.483521%, 75.680542%)" offset="0.617188"/><stop stop-opacity="1" stop-color="rgb(1.757812%, 67.184448%, 75.935364%)" offset="0.625"/><stop stop-opacity="1" stop-color="rgb(1.782227%, 66.886902%, 76.190186%)" offset="0.632812"/><stop stop-opacity="1" stop-color="rgb(1.806641%, 66.58783%, 76.445007%)" offset="0.640625"/><stop stop-opacity="1" stop-color="rgb(1.832581%, 66.290283%, 76.698303%)" offset="0.648438"/><stop stop-opacity="1" stop-color="rgb(1.856995%, 65.992737%, 76.953125%)" offset="0.65625"/><stop stop-opacity="1" stop-color="rgb(1.882935%, 65.693665%, 77.207947%)" offset="0.664062"/><stop stop-opacity="1" stop-color="rgb(1.907349%, 65.396118%, 77.462769%)" offset="0.671875"/><stop stop-opacity="1" stop-color="rgb(1.931763%, 65.097046%, 77.716064%)" offset="0.679688"/><stop stop-opacity="1" stop-color="rgb(1.957703%, 64.7995%, 77.970886%)" offset="0.6875"/><stop stop-opacity="1" stop-color="rgb(1.983643%, 64.474487%, 78.248596%)" offset="0.75"/><stop stop-opacity="1" stop-color="rgb(1.998901%, 64.299011%, 78.399658%)" offset="0.80066"/><stop stop-opacity="1" stop-color="rgb(1.998901%, 64.299011%, 78.399658%)" offset="1"/></linearGradient><clipPath id="67452dfc42"><path d="M 413 64 L 509.964844 64 L 509.964844 164 L 413 164 Z M 413 64 " clip-rule="nonzero"/></clipPath><clipPath id="12cedb7eb6"><path d="M 509.871094 68.042969 L 509.003906 78.089844 C 508.570312 80.539062 506.78125 83.953125 504.992188 85.699219 L 493.75 96.679688 C 491.976562 98.425781 491.121094 101.769531 491.851562 104.164062 L 503.636719 142.398438 C 504.382812 144.796875 504.3125 148.640625 503.511719 151.011719 L 503.390625 151.335938 C 502.578125 153.703125 500.816406 153.90625 499.460938 151.808594 L 477.15625 117.421875 C 475.800781 115.335938 473.171875 114.96875 471.285156 116.59375 L 449.144531 135.914062 C 447.273438 137.554688 446.121094 140.871094 446.597656 143.320312 L 448.601562 153.730469 C 449.089844 156.167969 448.941406 159.757812 448.289062 161.71875 C 447.640625 163.683594 445.984375 163.589844 444.589844 161.542969 L 437.242188 150.726562 C 435.84375 148.695312 433.621094 147.976562 432.277344 149.195312 C 430.9375 150.414062 429.09375 151.457031 428.144531 151.511719 C 427.207031 151.578125 426.476562 150.996094 426.515625 150.226562 C 426.558594 149.453125 427.304688 147.503906 428.226562 145.894531 C 429.132812 144.269531 428.046875 142.0625 425.8125 140.953125 L 425.203125 140.652344 C 425.214844 140.597656 425.226562 140.53125 425.242188 140.476562 C 425.214844 140.53125 425.175781 140.570312 425.148438 140.625 L 416.796875 136.496094 C 414.570312 135.414062 413.324219 133.761719 414.03125 132.855469 C 414.746094 131.949219 417.335938 131.324219 419.847656 131.472656 L 434.707031 132.285156 C 437.199219 132.433594 440.332031 130.851562 441.6875 128.765625 L 456.898438 105.503906 C 458.269531 103.421875 457.605469 100.738281 455.421875 99.519531 L 421.363281 80.605469 C 419.167969 79.414062 418.816406 77.667969 420.523438 76.75 C 422.230469 75.855469 425.59375 75.558594 428.035156 76.097656 L 470.148438 84.25 C 472.585938 84.804688 475.894531 83.75 477.550781 81.867188 L 488.679688 69.667969 C 490.347656 67.785156 493.671875 65.929688 496.136719 65.511719 L 506.15625 64.347656 C 508.625 63.925781 510.277344 65.59375 509.871094 68.042969 Z M 509.871094 68.042969 " clip-rule="nonzero"/></clipPath><linearGradient x1="274.569626" gradientTransform="matrix(1.355816, 0, 0, 1.353916, 79.712257, 57.71238)" y1="-1.695552" x2="293.365061" gradientUnits="userSpaceOnUse" y2="83.555377" id="e8d7350946"><stop stop-opacity="1" stop-color="rgb(5.099487%, 44.961548%, 90.09552%)" offset="0"/><stop stop-opacity="1" stop-color="rgb(5.099487%, 45.153809%, 90.135193%)" offset="0.015625"/><stop stop-opacity="1" stop-color="rgb(5.099487%, 45.539856%, 90.213013%)" offset="0.03125"/><stop stop-opacity="1" stop-color="rgb(5.099487%, 45.927429%, 90.292358%)" offset="0.046875"/><stop stop-opacity="1" stop-color="rgb(5.099487%, 46.313477%, 90.370178%)" offset="0.0625"/><stop stop-opacity="1" stop-color="rgb(5.099487%, 46.699524%, 90.447998%)" offset="0.078125"/><stop stop-opacity="1" stop-color="rgb(5.099487%, 47.087097%, 90.527344%)" offset="0.09375"/><stop stop-opacity="1" stop-color="rgb(5.099487%, 47.473145%, 90.605164%)" offset="0.109375"/><stop stop-opacity="1" stop-color="rgb(5.099487%, 47.859192%, 90.684509%)" offset="0.125"/><stop stop-opacity="1" stop-color="rgb(5.099487%, 48.246765%, 90.762329%)" offset="0.140625"/><stop stop-opacity="1" stop-color="rgb(5.099487%, 48.632812%, 90.840149%)" offset="0.15625"/><stop stop-opacity="1" stop-color="rgb(5.099487%, 49.01886%, 90.919495%)" offset="0.171875"/><stop stop-opacity="1" stop-color="rgb(5.099487%, 49.406433%, 90.997314%)" offset="0.175791"/><stop stop-opacity="1" stop-color="rgb(5.099487%, 49.60022%, 91.036987%)" offset="0.1875"/><stop stop-opacity="1" stop-color="rgb(5.099487%, 49.79248%, 91.07666%)" offset="0.203125"/><stop stop-opacity="1" stop-color="rgb(5.099487%, 50.178528%, 91.15448%)" offset="0.21875"/><stop stop-opacity="1" stop-color="rgb(5.099487%, 50.566101%, 91.2323%)" offset="0.234375"/><stop stop-opacity="1" stop-color="rgb(5.099487%, 50.952148%, 91.311646%)" offset="0.25"/><stop stop-opacity="1" stop-color="rgb(5.099487%, 51.338196%, 91.389465%)" offset="0.265625"/><stop stop-opacity="1" stop-color="rgb(5.099487%, 51.725769%, 91.468811%)" offset="0.28125"/><stop stop-opacity="1" stop-color="rgb(5.099487%, 52.111816%, 91.546631%)" offset="0.296875"/><stop stop-opacity="1" stop-color="rgb(5.099487%, 52.497864%, 91.625977%)" offset="0.3125"/><stop stop-opacity="1" stop-color="rgb(5.099487%, 52.885437%, 91.703796%)" offset="0.328125"/><stop stop-opacity="1" stop-color="rgb(5.099487%, 53.271484%, 91.781616%)" offset="0.34375"/><stop stop-opacity="1" stop-color="rgb(5.099487%, 53.657532%, 91.860962%)" offset="0.359375"/><stop stop-opacity="1" stop-color="rgb(5.099487%, 54.045105%, 91.938782%)" offset="0.375"/><stop stop-opacity="1" stop-color="rgb(5.099487%, 54.431152%, 92.018127%)" offset="0.390625"/><stop stop-opacity="1" stop-color="rgb(5.099487%, 54.8172%, 92.095947%)" offset="0.40625"/><stop stop-opacity="1" stop-color="rgb(5.099487%, 55.204773%, 92.173767%)" offset="0.421875"/><stop stop-opacity="1" stop-color="rgb(5.099487%, 55.59082%, 92.253113%)" offset="0.4375"/><stop stop-opacity="1" stop-color="rgb(5.099487%, 55.976868%, 92.330933%)" offset="0.453125"/><stop stop-opacity="1" stop-color="rgb(5.099487%, 56.364441%, 92.410278%)" offset="0.46875"/><stop stop-opacity="1" stop-color="rgb(5.099487%, 56.750488%, 92.488098%)" offset="0.484375"/><stop stop-opacity="1" stop-color="rgb(5.099487%, 57.136536%, 92.567444%)" offset="0.5"/><stop stop-opacity="1" stop-color="rgb(5.099487%, 57.524109%, 92.645264%)" offset="0.515625"/><stop stop-opacity="1" stop-color="rgb(5.099487%, 57.910156%, 92.723083%)" offset="0.53125"/><stop stop-opacity="1" stop-color="rgb(5.099487%, 58.296204%, 92.802429%)" offset="0.546875"/><stop stop-opacity="1" stop-color="rgb(5.099487%, 58.683777%, 92.880249%)" offset="0.5625"/><stop stop-opacity="1" stop-color="rgb(5.099487%, 59.069824%, 92.959595%)" offset="0.578125"/><stop stop-opacity="1" stop-color="rgb(5.099487%, 59.455872%, 93.037415%)" offset="0.59375"/><stop stop-opacity="1" stop-color="rgb(5.099487%, 59.843445%, 93.115234%)" offset="0.609375"/><stop stop-opacity="1" stop-color="rgb(5.099487%, 60.229492%, 93.19458%)" offset="0.625"/><stop stop-opacity="1" stop-color="rgb(5.099487%, 60.61554%, 93.2724%)" offset="0.640625"/><stop stop-opacity="1" stop-color="rgb(5.099487%, 61.003113%, 93.351746%)" offset="0.65625"/><stop stop-opacity="1" stop-color="rgb(5.099487%, 61.38916%, 93.429565%)" offset="0.671875"/><stop stop-opacity="1" stop-color="rgb(5.099487%, 61.775208%, 93.507385%)" offset="0.6875"/><stop stop-opacity="1" stop-color="rgb(5.099487%, 62.162781%, 93.586731%)" offset="0.703125"/><stop stop-opacity="1" stop-color="rgb(5.099487%, 62.548828%, 93.664551%)" offset="0.71875"/><stop stop-opacity="1" stop-color="rgb(5.099487%, 62.934875%, 93.743896%)" offset="0.734375"/><stop stop-opacity="1" stop-color="rgb(5.099487%, 63.322449%, 93.821716%)" offset="0.75"/><stop stop-opacity="1" stop-color="rgb(5.099487%, 63.708496%, 93.901062%)" offset="0.765625"/><stop stop-opacity="1" stop-color="rgb(5.099487%, 64.094543%, 93.978882%)" offset="0.78125"/><stop stop-opacity="1" stop-color="rgb(5.099487%, 64.482117%, 94.056702%)" offset="0.796875"/><stop stop-opacity="1" stop-color="rgb(5.099487%, 64.868164%, 94.136047%)" offset="0.8125"/><stop stop-opacity="1" stop-color="rgb(5.099487%, 65.254211%, 94.213867%)" offset="0.824209"/><stop stop-opacity="1" stop-color="rgb(5.099487%, 65.447998%, 94.25354%)" offset="0.828125"/><stop stop-opacity="1" stop-color="rgb(5.099487%, 65.641785%, 94.293213%)" offset="0.84375"/><stop stop-opacity="1" stop-color="rgb(5.099487%, 66.027832%, 94.371033%)" offset="0.859375"/><stop stop-opacity="1" stop-color="rgb(5.099487%, 66.413879%, 94.448853%)" offset="0.875"/><stop stop-opacity="1" stop-color="rgb(5.099487%, 66.799927%, 94.528198%)" offset="0.890625"/><stop stop-opacity="1" stop-color="rgb(5.099487%, 67.1875%, 94.606018%)" offset="0.90625"/><stop stop-opacity="1" stop-color="rgb(5.099487%, 67.573547%, 94.685364%)" offset="0.921875"/><stop stop-opacity="1" stop-color="rgb(5.099487%, 67.959595%, 94.763184%)" offset="0.9375"/><stop stop-opacity="1" stop-color="rgb(5.099487%, 68.347168%, 94.842529%)" offset="0.953125"/><stop stop-opacity="1" stop-color="rgb(5.099487%, 68.733215%, 94.920349%)" offset="0.96875"/><stop stop-opacity="1" stop-color="rgb(5.099487%, 69.119263%, 94.998169%)" offset="0.984375"/><stop stop-opacity="1" stop-color="rgb(5.099487%, 69.506836%, 95.077515%)" offset="1"/></linearGradient><clipPath id="ac6350c233"><path d="M 425 140 L 426 140 L 426 141 L 425 141 Z M 425 140 " clip-rule="nonzero"/></clipPath><clipPath id="a6096f84cb"><path d="M 425.132812 140.613281 L 425.175781 140.640625 C 425.1875 140.585938 425.203125 140.519531 425.214844 140.464844 C 425.1875 140.519531 425.160156 140.570312 425.132812 140.613281 Z M 425.132812 140.613281 " clip-rule="nonzero"/></clipPath><linearGradient x1="-1899.39717" gradientTransform="matrix(-0.337842, 1.31121, -1.31305, -0.337369, -2768.244178, 1975.388472)" y1="-1943.262207" x2="-1899.467621" gradientUnits="userSpaceOnUse" y2="-1943.391167" id="bb1718077c"><stop stop-opacity="1" stop-color="rgb(5.099487%, 58.894348%, 92.9245%)" offset="0"/><stop stop-opacity="1" stop-color="rgb(5.099487%, 58.8974%, 92.9245%)" offset="0.459526"/><stop stop-opacity="1" stop-color="rgb(5.099487%, 58.901978%, 92.9245%)" offset="0.5"/><stop stop-opacity="1" stop-color="rgb(5.099487%, 58.905029%, 92.9245%)" offset="0.540474"/><stop stop-opacity="1" stop-color="rgb(5.099487%, 58.909607%, 92.926025%)" offset="1"/></linearGradient></defs><g clip-path="url(#4440695f1b)"><g clip-path="url(#93f894d064)"><path fill="url(#d171387ba1)" d="M 79.710938 57.710938 L 79.710938 272.875 L 403.96875 272.875 L 403.96875 57.710938 Z M 79.710938 57.710938 " fill-rule="nonzero"/></g></g><g clip-path="url(#f6617fa25f)"><g clip-path="url(#51d3c9fe61)"><path fill="url(#3f8b4d56b2)" d="M 148.832031 186.117188 L 148.832031 528.484375 L 413.800781 528.484375 L 413.800781 186.117188 Z M 148.832031 186.117188 " fill-rule="nonzero"/></g></g><g clip-path="url(#67452dfc42)"><g clip-path="url(#12cedb7eb6)"><path fill="url(#e8d7350946)" d="M 413.324219 63.925781 L 413.324219 163.683594 L 509.964844 163.683594 L 509.964844 63.925781 Z M 413.324219 63.925781 " fill-rule="nonzero"/></g></g><g clip-path="url(#ac6350c233)"><g clip-path="url(#a6096f84cb)"><path fill="url(#bb1718077c)" d="M 425.257812 140.476562 L 425.136719 140.445312 L 425.089844 140.628906 L 425.210938 140.660156 Z M 425.257812 140.476562 " fill-rule="nonzero"/></g></g><g fill="#545454" fill-opacity="1"><g transform="translate(566.366485, 247.410632)"><g><path d="M 67.296875 -81.78125 L 67.296875 -71.734375 L 40.171875 -71.734375 L 40.171875 0 L 29.078125 0 L 29.078125 -71.734375 L 1.953125 -71.734375 L 1.953125 -81.78125 Z M 67.296875 -81.78125 "/></g></g></g><g fill="#545454" fill-opacity="1"><g transform="translate(635.618082, 247.410632)"><g><path d="M 20.46875 -29.34375 L 20.46875 0 L 9.390625 0 L 9.390625 -81.78125 L 37.171875 -81.78125 C 48.734375 -81.78125 57.015625 -79.800781 62.015625 -75.84375 C 67.015625 -71.882812 69.515625 -65.34375 69.515625 -56.21875 C 69.515625 -49.082031 67.925781 -43.40625 64.75 -39.1875 C 61.582031 -34.96875 56.78125 -32.125 50.34375 -30.65625 L 71.734375 0 L 58.421875 0 L 38.609375 -29.34375 Z M 58.296875 -56.21875 C 58.296875 -61.78125 56.6875 -65.753906 53.46875 -68.140625 C 50.25 -70.535156 44.816406 -71.734375 37.171875 -71.734375 L 20.46875 -71.734375 L 20.46875 -39.125 L 37.171875 -39.125 C 44.648438 -39.125 50.039062 -40.472656 53.34375 -43.171875 C 56.644531 -45.867188 58.296875 -50.21875 58.296875 -56.21875 Z M 58.296875 -56.21875 "/></g></g></g><g fill="#545454" fill-opacity="1"><g transform="translate(711.129723, 247.410632)"><g><path d="M 20.46875 -81.78125 L 20.46875 0 L 9.390625 0 L 9.390625 -81.78125 Z M 20.46875 -81.78125 "/></g></g></g><g fill="#545454" fill-opacity="1"><g transform="translate(740.995282, 247.410632)"><g><path d="M 20.46875 -26.46875 L 20.46875 0 L 9.390625 0 L 9.390625 -81.78125 L 37.171875 -81.78125 C 48.734375 -81.78125 57.015625 -79.691406 62.015625 -75.515625 C 67.015625 -71.335938 69.515625 -64.507812 69.515625 -55.03125 C 69.515625 -45.382812 66.90625 -38.210938 61.6875 -33.515625 C 56.46875 -28.816406 48.425781 -26.46875 37.5625 -26.46875 Z M 58.296875 -55.03125 C 58.296875 -61.03125 56.664062 -65.3125 53.40625 -67.875 C 50.144531 -70.445312 44.734375 -71.734375 37.171875 -71.734375 L 20.46875 -71.734375 L 20.46875 -36.25 L 37.171875 -36.25 C 44.734375 -36.25 50.144531 -37.726562 53.40625 -40.6875 C 56.664062 -43.644531 58.296875 -48.425781 58.296875 -55.03125 Z M 58.296875 -55.03125 "/></g></g></g><g fill="#545454" fill-opacity="1"><g transform="translate(477.415056, 427.797633)"><g><path d="M 67.296875 -81.78125 L 67.296875 -71.734375 L 40.171875 -71.734375 L 40.171875 0 L 29.078125 0 L 29.078125 -71.734375 L 1.953125 -71.734375 L 1.953125 -81.78125 Z M 67.296875 -81.78125 "/></g></g></g><g fill="#545454" fill-opacity="1"><g transform="translate(546.666653, 427.797633)"><g><path d="M 20.46875 -29.34375 L 20.46875 0 L 9.390625 0 L 9.390625 -81.78125 L 37.171875 -81.78125 C 48.734375 -81.78125 57.015625 -79.800781 62.015625 -75.84375 C 67.015625 -71.882812 69.515625 -65.34375 69.515625 -56.21875 C 69.515625 -49.082031 67.925781 -43.40625 64.75 -39.1875 C 61.582031 -34.96875 56.78125 -32.125 50.34375 -30.65625 L 71.734375 0 L 58.421875 0 L 38.609375 -29.34375 Z M 58.296875 -56.21875 C 58.296875 -61.78125 56.6875 -65.753906 53.46875 -68.140625 C 50.25 -70.535156 44.816406 -71.734375 37.171875 -71.734375 L 20.46875 -71.734375 L 20.46875 -39.125 L 37.171875 -39.125 C 44.648438 -39.125 50.039062 -40.472656 53.34375 -43.171875 C 56.644531 -45.867188 58.296875 -50.21875 58.296875 -56.21875 Z M 58.296875 -56.21875 "/></g></g></g><g fill="#545454" fill-opacity="1"><g transform="translate(622.178294, 427.797633)"><g><path d="M 63.640625 -10.4375 L 63.640625 0 L 9.390625 0 L 9.390625 -81.78125 L 62.46875 -81.78125 L 62.46875 -71.734375 L 20.46875 -71.734375 L 20.46875 -46.6875 L 57.640625 -46.6875 L 57.640625 -36.90625 L 20.46875 -36.90625 L 20.46875 -10.4375 Z M 63.640625 -10.4375 "/></g></g></g><g fill="#545454" fill-opacity="1"><g transform="translate(690.38656, 427.797633)"><g><path d="M 12.78125 0 L 1.046875 0 L 33.390625 -81.78125 L 44.859375 -81.78125 L 76.8125 0 L 65.078125 0 L 57.640625 -19.6875 L 20.21875 -19.6875 Z M 38.859375 -71.609375 C 37.992188 -68.554688 36.972656 -65.332031 35.796875 -61.9375 C 34.628906 -58.550781 33.4375 -55.164062 32.21875 -51.78125 L 23.875 -29.46875 L 54 -29.46875 L 45.640625 -51.78125 C 43.910156 -56.5625 42.546875 -60.425781 41.546875 -63.375 C 40.546875 -66.332031 39.648438 -69.078125 38.859375 -71.609375 Z M 38.859375 -71.609375 "/></g></g></g><g fill="#545454" fill-opacity="1"><g transform="translate(768.376091, 427.797633)"><g><path d="M 67.296875 -81.78125 L 67.296875 -71.734375 L 40.171875 -71.734375 L 40.171875 0 L 29.078125 0 L 29.078125 -71.734375 L 1.953125 -71.734375 L 1.953125 -81.78125 Z M 67.296875 -81.78125 "/></g></g></g><g fill="#545454" fill-opacity="1"><g transform="translate(837.627688, 427.797633)"><g><path d="M 40.953125 -34.296875 L 21.125 -39 C 15.644531 -40.300781 11.6875 -42.535156 9.25 -45.703125 C 6.820312 -48.878906 5.609375 -53.296875 5.609375 -58.953125 C 5.609375 -67.210938 7.976562 -73.296875 12.71875 -77.203125 C 17.457031 -81.117188 24.828125 -83.078125 34.828125 -83.078125 C 38.992188 -83.078125 42.75 -82.878906 46.09375 -82.484375 C 49.445312 -82.097656 52.554688 -81.515625 55.421875 -80.734375 L 55.421875 -70.6875 C 51.773438 -71.5625 48.300781 -72.171875 45 -72.515625 C 41.695312 -72.859375 38.257812 -73.03125 34.6875 -73.03125 C 28 -73.03125 23.304688 -72.050781 20.609375 -70.09375 C 17.910156 -68.144531 16.5625 -64.691406 16.5625 -59.734375 C 16.5625 -56.597656 17.191406 -54.226562 18.453125 -52.625 C 19.710938 -51.019531 21.78125 -49.867188 24.65625 -49.171875 L 44.34375 -44.46875 C 51.300781 -42.820312 55.929688 -40.5 58.234375 -37.5 C 60.535156 -34.5 61.6875 -29.867188 61.6875 -23.609375 C 61.6875 -14.648438 59.359375 -8.300781 54.703125 -4.5625 C 50.054688 -0.820312 42.691406 1.046875 32.609375 1.046875 C 27.304688 1.046875 22.195312 0.695312 17.28125 0 C 12.363281 -0.695312 8.472656 -1.609375 5.609375 -2.734375 L 5.609375 -13.171875 C 9.691406 -11.953125 14.035156 -11.015625 18.640625 -10.359375 C 23.253906 -9.710938 27.910156 -9.390625 32.609375 -9.390625 C 39.128906 -9.390625 43.691406 -10.34375 46.296875 -12.25 C 48.910156 -14.164062 50.21875 -17.863281 50.21875 -23.34375 C 50.21875 -26.738281 49.585938 -29.195312 48.328125 -30.71875 C 47.066406 -32.238281 44.609375 -33.429688 40.953125 -34.296875 Z M 40.953125 -34.296875 "/></g></g></g></svg>